<?xml version="1.0" encoding="UTF-8"?>
<svg width="32px" height="32px" viewBox="0 0 32 32" version="1.1" xmlns="http://www.w3.org/2000/svg">
    <title>close menu icon</title>
    <g stroke="none" stroke-width="1" fill="none" fill-rule="evenodd">
        <rect fill="#FFFFFF" x="0" y="0" width="32" height="32"></rect>
        <path d="M6.10050506,23.0710678 L23.0710678,6.10050506 C23.8521164,5.31945648 25.1184464,5.31945648 25.8994949,6.10050506 C26.6805435,6.88155365 26.6805435,8.1478836 25.8994949,8.92893219 L8.92893219,25.8994949 C8.1478836,26.6805435 6.88155365,26.6805435 6.10050506,25.8994949 C5.31945648,25.1184464 5.31945648,23.8521164 6.10050506,23.0710678 Z" fill="#13294b"></path>
        <path d="M8.93264069,6.10421356 L25.9032034,23.0747763 C26.684252,23.8558249 26.684252,25.1221549 25.9032034,25.9032034 C25.1221549,26.684252 23.8558249,26.684252 23.0747763,25.9032034 L6.10421356,8.93264069 C5.32316498,8.1515921 5.32316498,6.88526215 6.10421356,6.10421356 C6.88526215,5.32316498 8.1515921,5.32316498 8.93264069,6.10421356 Z" fill="#13294b"></path>
    </g>
</svg>
